<?xml version="1.0" encoding="UTF-8" standalone="no"?>
<!-- Created with Inkscape (http://www.inkscape.org/) -->
<svg
   xmlns:dc="http://purl.org/dc/elements/1.1/"
   xmlns:cc="http://web.resource.org/cc/"
   xmlns:rdf="http://www.w3.org/1999/02/22-rdf-syntax-ns#"
   xmlns:svg="http://www.w3.org/2000/svg"
   xmlns="http://www.w3.org/2000/svg"
   xmlns:sodipodi="http://sodipodi.sourceforge.net/DTD/sodipodi-0.dtd"
   xmlns:inkscape="http://www.inkscape.org/namespaces/inkscape"
   width="601"
   height="751"
   id="svg2"
   sodipodi:version="0.32"
   inkscape:version="0.44"
   version="1.0"
   sodipodi:docbase="C:\Documents and Settings\ltljltlj\Desktop\Signs\Speed Limit Signs"
   sodipodi:docname="Speed Limit 45 sign (Outline).svg">
  <defs
     id="defs4" />
  <sodipodi:namedview
     id="base"
     pagecolor="#ffffff"
     bordercolor="#666666"
     borderopacity="1.0"
     gridtolerance="10000"
     guidetolerance="10"
     objecttolerance="10"
     inkscape:pageopacity="0.0"
     inkscape:pageshadow="2"
     inkscape:zoom="1.0293333"
     inkscape:cx="299.99998"
     inkscape:cy="374.99999"
     inkscape:document-units="px"
     inkscape:current-layer="layer1"
     width="601px"
     height="751px"
     inkscape:window-width="1280"
     inkscape:window-height="968"
     inkscape:window-x="-4"
     inkscape:window-y="-4" />
  <metadata
     id="metadata7">
    <rdf:RDF>
      <cc:Work
         rdf:about="">
        <dc:format>image/svg+xml</dc:format>
        <dc:type
           rdf:resource="http://purl.org/dc/dcmitype/StillImage" />
      </cc:Work>
    </rdf:RDF>
  </metadata>
  <g
     inkscape:label="Layer 1"
     inkscape:groupmode="layer"
     id="layer1">
    <path
       style="color:black;fill:white;fill-opacity:1;fill-rule:nonzero;stroke:black;stroke-width:1;stroke-linecap:butt;stroke-linejoin:miter;marker:none;marker-start:none;marker-mid:none;marker-end:none;stroke-miterlimit:4;stroke-dashoffset:0;stroke-opacity:1;visibility:visible;display:inline;overflow:visible"
       d="M 38,0.5 L 563,0.5 C 583.775,0.5 600.5,17.225 600.5,38 L 600.5,713 C 600.5,733.775 583.775,750.5 563,750.5 L 38,750.5 C 17.225,750.5 0.5,733.775 0.5,713 L 0.5,38 C 0.5,17.225 17.225,0.5 38,0.5 z "
       id="rect1872" />
    <path
       style="color:black;fill:black;fill-opacity:1;fill-rule:nonzero;stroke:none;stroke-width:0.8735441;stroke-linecap:butt;stroke-linejoin:miter;marker:none;marker-start:none;marker-mid:none;marker-end:none;stroke-miterlimit:4;stroke-dashoffset:0;stroke-opacity:1;visibility:visible;display:inline;overflow:visible"
       d="M 38,9.875 L 563,9.875 C 578.58125,9.875 591.125,22.41875 591.125,38 L 591.125,713 C 591.125,728.58125 578.58125,741.125 563,741.125 L 38,741.125 C 22.41875,741.125 9.875,728.58125 9.875,713 L 9.875,38 C 9.875,22.41875 22.41875,9.875 38,9.875 z "
       id="rect2760" />
    <path
       style="color:black;fill:white;fill-opacity:1;fill-rule:nonzero;stroke:none;stroke-width:0.8735441;stroke-linecap:butt;stroke-linejoin:miter;marker:none;marker-start:none;marker-mid:none;marker-end:none;stroke-miterlimit:4;stroke-dashoffset:0;stroke-opacity:1;visibility:visible;display:inline;overflow:visible"
       d="M 38,25.5 L 563,25.5 C 569.925,25.5 575.5,31.075 575.5,38 L 575.5,713 C 575.5,719.925 569.925,725.5 563,725.5 L 38,725.5 C 31.075,725.5 25.5,719.925 25.5,713 L 25.5,38 C 25.5,31.075 31.075,25.5 38,25.5 z "
       id="rect2762" />
    <path
       style="font-size:151.02735901px;font-style:normal;font-variant:normal;font-weight:normal;font-stretch:normal;text-align:center;line-height:125%;writing-mode:lr-tb;text-anchor:middle;font-family:Roadgeek 2005 Series E"
       d="M 144.10621,171.39507 C 144.10612,181.5461 139.31633,189.35749 129.73681,194.82924 C 126.17353,197.01856 122.15016,198.68484 117.66669,199.82807 C 113.18309,200.97132 108.5472,201.54294 103.75901,201.54294 C 94.894489,201.54294 87.074729,199.97611 80.299701,196.84244 C 73.524622,193.70878 67.233058,188.85797 61.424989,182.29002 L 76.097548,171.09901 C 79.968541,175.47463 84.043988,178.65763 88.323903,180.64804 C 92.60375,182.63848 97.646174,183.63369 103.45119,183.63367 C 109.97124,183.63369 115.31992,182.4153 119.49726,179.97849 C 123.67447,177.54172 125.76311,174.43159 125.76318,170.64809 C 125.76311,166.67031 123.62395,163.63686 119.34569,161.54771 C 117.51117,160.84935 115.60053,160.15172 113.61378,159.4548 C 111.62692,158.75797 109.46288,158.16206 107.12166,157.66706 L 102.38317,156.32341 L 97.644662,155.27583 L 92.756919,153.78643 C 87.458721,152.59009 83.306319,151.27074 80.299701,149.82835 C 77.293032,148.38606 74.720129,146.47155 72.580984,144.08482 C 70.441802,141.79535 68.837431,139.2075 67.767862,136.32125 C 66.698267,133.43512 66.163476,130.40091 66.163488,127.21859 C 66.163476,123.04045 67.029402,119.25925 68.761268,115.87499 C 70.493105,112.4909 72.887227,109.58042 75.943639,107.14355 C 79.000009,104.70685 82.69302,102.81663 87.022681,101.47289 C 91.352277,100.12934 96.116424,99.457509 101.31513,99.45741 C 108.95451,99.457509 115.90756,100.70096 122.17433,103.18775 C 128.44095,105.67474 134.17208,109.55537 139.36771,114.82968 L 125.76318,126.77222 C 119.34562,120.20436 111.19628,116.92039 101.31513,116.92031 C 96.116424,116.92039 92.06585,117.84045 89.163401,119.68048 C 86.260883,121.52069 84.809641,124.03338 84.809671,127.21859 C 84.809641,128.61241 85.063821,129.83157 85.572216,130.87605 C 86.080546,131.92067 86.946472,132.86578 88.169996,133.71138 C 89.39345,134.55711 91.049126,135.32838 93.137025,136.02519 C 95.224846,136.72213 97.848275,137.41825 101.00732,138.11354 C 107.83207,139.50736 113.53754,140.90035 118.12375,142.29252 C 122.70983,143.68481 126.42849,145.0778 129.27975,146.4715 C 133.86581,148.76108 137.48343,152.11943 140.13258,156.5466 C 142.78158,160.97385 144.10612,165.92334 144.10621,171.39507 L 144.10621,171.39507 z M 246.45967,131.09923 C 246.45957,133.68639 246.10357,136.27349 245.39164,138.86052 C 244.67953,141.44767 243.6356,143.88522 242.25984,146.17317 C 240.88391,148.46122 239.22824,150.57538 237.29282,152.51565 C 235.35723,154.45601 233.16598,156.07295 230.71908,157.36645 C 227.76522,158.95762 224.93813,160.00217 222.23782,160.50012 C 219.53737,160.99814 216.25167,161.24714 212.38071,161.2471 L 183.19417,161.2471 L 183.19417,200.4999 L 164.54799,200.4999 L 164.54799,100.50045 L 212.38071,100.50045 C 216.25167,100.50055 219.53737,100.79965 222.23782,101.39773 C 224.93813,101.99603 227.76522,103.09068 230.71908,104.6817 C 235.60985,107.26889 239.456,110.90054 242.25752,115.57665 C 245.05886,120.25294 246.45957,125.42713 246.45967,131.09923 L 246.45967,131.09923 z M 228.1213,131.09923 C 228.12123,127.21867 226.74616,124.13434 223.9961,121.84627 C 221.2459,119.55835 217.57776,118.41435 212.99168,118.41427 L 183.19417,118.41427 L 183.19417,143.33783 L 212.99168,143.33783 C 217.57776,143.33789 221.2459,142.21819 223.9961,139.97871 C 226.74616,137.73935 228.12123,134.77953 228.1213,131.09923 L 228.1213,131.09923 z M 263.64604,200.4999 L 263.64604,100.50045 L 338.37536,100.50045 L 338.37536,118.41427 L 282.29223,118.41427 L 282.29223,136.9202 L 312.85462,136.9202 L 312.85462,155.27583 L 282.29223,155.27583 L 282.29223,182.59063 L 340.21293,182.59063 L 340.21293,200.4999 L 263.64604,200.4999 z M 360.6547,200.4999 L 360.6547,100.50045 L 435.38401,100.50045 L 435.38401,118.41427 L 379.30089,118.41427 L 379.30089,136.9202 L 409.86327,136.9202 L 409.86327,155.27583 L 379.30089,155.27583 L 379.30089,182.59063 L 437.22158,182.59063 L 437.22158,200.4999 L 360.6547,200.4999 z M 539.57504,150.35215 C 539.57495,160.40299 537.48631,169.15948 533.30912,176.62164 C 529.13176,184.08385 522.96845,190.05284 514.81917,194.52862 C 511.2528,196.52057 507.381,198.01377 503.20379,199.00822 C 499.02645,200.00267 494.84996,200.4999 490.67429,200.4999 L 457.66335,200.4999 L 457.66335,100.50045 L 490.67429,100.50045 C 499.4361,100.50055 507.587,102.59118 515.127,106.77234 C 523.07106,111.24822 529.13176,117.14281 533.30912,124.45614 C 537.48631,131.76961 539.57495,140.4016 539.57504,150.35215 L 539.57504,150.35215 z M 521.23667,150.35215 C 521.2366,143.58689 519.98901,137.91548 517.49391,133.33789 C 514.99866,128.76045 511.20306,125.07945 506.10705,122.29491 C 501.42136,119.70789 496.2771,118.41435 490.67429,118.41427 L 476.30954,118.41427 L 476.30954,182.59063 L 490.67429,182.59063 C 496.07189,182.59065 501.01248,181.29711 505.49609,178.70999 C 515.98974,173.33542 521.2366,163.88282 521.23667,150.35215 L 521.23667,150.35215 z "
       id="text2774" />
    <path
       style="font-size:149.25358582px;font-style:normal;font-variant:normal;font-weight:normal;font-stretch:normal;text-align:center;line-height:125%;writing-mode:lr-tb;text-anchor:middle;font-family:Roadgeek 2005 Series E"
       d="M 117.675,350.49999 L 117.675,250.50049 L 135.58513,250.50049 L 135.58513,335.12772 L 192.45391,335.12772 L 192.45391,350.49999 L 117.675,350.49999 z M 209.50315,350.49999 L 209.50315,250.50049 L 227.41328,250.50049 L 227.41328,350.49999 L 209.50315,350.49999 z M 329.64041,350.49999 L 329.64041,289.45725 L 300.23809,350.49999 L 271.13186,289.45725 L 271.13186,350.49999 L 253.52235,350.49999 L 253.52235,250.50049 L 271.13186,250.50049 L 300.23809,309.75321 L 329.64041,250.50049 L 347.25447,250.50049 L 347.25447,350.49999 L 329.64041,350.49999 z M 373.3362,350.49999 L 373.3362,250.50049 L 391.24633,250.50049 L 391.24633,350.49999 L 373.3362,350.49999 z M 454.5194,268.1137 L 454.5194,350.49999 L 437.05565,350.49999 L 437.05565,268.1137 L 408.25004,268.1137 L 408.25004,250.50049 L 483.32501,250.50049 L 483.32501,268.1137 L 454.5194,268.1137 z "
       id="text2780" />
    <path
       style="font-size:373.12701416px;font-style:normal;font-variant:normal;font-weight:normal;font-stretch:normal;text-align:center;line-height:125%;writing-mode:lr-tb;text-anchor:middle;font-family:Roadgeek 2005 Series E"
       d="M 258.96062,599.75983 L 258.96062,650.5 L 215.30312,650.5 L 215.30312,599.75983 L 60.827985,599.75983 L 60.827985,559.46147 L 215.30312,400.49989 L 258.96062,400.49989 L 258.96062,559.46147 L 295.89983,559.46147 L 295.89983,599.75983 L 258.96062,599.75983 z M 215.30312,459.46143 L 117.91068,559.46147 L 215.30312,559.46147 L 215.30312,459.46143 z M 540.17232,564.67669 C 540.1721,577.86283 537.5588,589.9899 532.33241,601.05794 C 527.10561,612.12607 519.82936,621.64175 510.50366,629.60498 C 501.17759,637.56825 490.04687,643.78741 477.11148,648.26247 C 464.17578,652.73753 450.12053,654.97506 434.94567,654.97506 C 417.78167,654.97506 401.36363,652.6749 385.69149,648.07458 C 370.01923,643.47427 354.22367,636.44854 338.30477,626.99737 L 361.8074,588.93085 C 384.20164,602.618 408.58104,609.46154 434.94567,609.46149 C 453.84785,609.46154 468.64705,605.54254 479.34332,597.70449 C 490.03928,589.86654 495.38734,578.85729 495.38751,564.67669 C 495.38734,557.96608 493.95828,551.56284 491.10033,545.46693 C 488.24204,539.37124 484.4483,534.33442 479.71909,530.35647 C 471.01173,523.3878 457.45371,519.9034 439.04497,519.90327 C 430.83867,519.9034 423.0671,520.64924 415.73022,522.1408 C 408.39315,523.63262 400.12056,526.12066 390.9124,529.60493 L 346.13898,518.03581 L 353.97319,400.49989 L 520.76898,400.49989 L 520.01745,444.53316 L 396.139,444.53316 L 393.5314,480.35645 C 403.72641,478.11719 412.30646,476.50025 419.27156,475.50562 C 426.23646,474.51133 433.70059,474.0141 441.66396,474.01393 C 455.84435,474.0141 468.96588,476.31426 481.02859,480.91441 C 493.09097,485.5149 503.53847,491.85741 512.37112,499.94197 C 521.20339,508.02684 528.04503,517.60324 532.89607,528.67121 C 537.74668,539.73942 540.1721,551.74123 540.17232,564.67669 L 540.17232,564.67669 z "
       id="text1895" />
  </g>
</svg>
